<svg xmlns="http://www.w3.org/2000/svg" width="288" height="224" viewBox="0 0 288 224">
  <!-- Mortar base: Deep refined charcoal -->
  <rect width="288" height="224" fill="#181B1E"/>

  <!-- Course 1 (y: 2 to 54, height: 52px) -->
  <rect x="2" y="2" width="140" height="52" rx="2" fill="#3B251E"/>
  <line x1="4" y1="4" x2="140" y2="4" stroke="#FFFFFF" stroke-opacity="0.08" stroke-width="1.2"/>
  <line x1="4" y1="53" x2="140" y2="53" stroke="#000000" stroke-opacity="0.30" stroke-width="1.2"/>

  <rect x="146" y="2" width="140" height="52" rx="2" fill="#32201A"/>
  <line x1="148" y1="4" x2="284" y2="4" stroke="#FFFFFF" stroke-opacity="0.08" stroke-width="1.2"/>
  <line x1="148" y1="53" x2="284" y2="53" stroke="#000000" stroke-opacity="0.30" stroke-width="1.2"/>

  <!-- Course 2 (y: 58 to 110, offset 72px) -->
  <rect x="-70" y="58" width="140" height="52" rx="2" fill="#2E1E19"/>
  <line x1="2" y1="60" x2="68" y2="60" stroke="#FFFFFF" stroke-opacity="0.08" stroke-width="1.2"/>
  <line x1="2" y1="109" x2="68" y2="109" stroke="#000000" stroke-opacity="0.30" stroke-width="1.2"/>

  <rect x="74" y="58" width="140" height="52" rx="2" fill="#442B23"/>
  <line x1="76" y1="60" x2="212" y2="60" stroke="#FFFFFF" stroke-opacity="0.08" stroke-width="1.2"/>
  <line x1="76" y1="109" x2="212" y2="109" stroke="#000000" stroke-opacity="0.30" stroke-width="1.2"/>

  <rect x="218" y="58" width="140" height="52" rx="2" fill="#2E1E19"/>
  <line x1="220" y1="60" x2="286" y2="60" stroke="#FFFFFF" stroke-opacity="0.08" stroke-width="1.2"/>
  <line x1="220" y1="109" x2="286" y2="109" stroke="#000000" stroke-opacity="0.30" stroke-width="1.2"/>

  <!-- Course 3 (y: 114 to 166, height: 52px) -->
  <rect x="2" y="114" width="140" height="52" rx="2" fill="#38231C"/>
  <line x1="4" y1="116" x2="140" y2="116" stroke="#FFFFFF" stroke-opacity="0.08" stroke-width="1.2"/>
  <line x1="4" y1="165" x2="140" y2="165" stroke="#000000" stroke-opacity="0.30" stroke-width="1.2"/>

  <rect x="146" y="114" width="140" height="52" rx="2" fill="#482D24"/>
  <line x1="148" y1="116" x2="284" y2="116" stroke="#FFFFFF" stroke-opacity="0.08" stroke-width="1.2"/>
  <line x1="148" y1="165" x2="284" y2="165" stroke="#000000" stroke-opacity="0.30" stroke-width="1.2"/>

  <!-- Course 4 (y: 170 to 222, offset 72px) -->
  <rect x="-70" y="170" width="140" height="52" rx="2" fill="#3E2720"/>
  <line x1="2" y1="172" x2="68" y2="172" stroke="#FFFFFF" stroke-opacity="0.08" stroke-width="1.2"/>
  <line x1="2" y1="221" x2="68" y2="221" stroke="#000000" stroke-opacity="0.30" stroke-width="1.2"/>

  <rect x="74" y="170" width="140" height="52" rx="2" fill="#36221B"/>
  <line x1="76" y1="172" x2="212" y2="172" stroke="#FFFFFF" stroke-opacity="0.08" stroke-width="1.2"/>
  <line x1="76" y1="221" x2="212" y2="221" stroke="#000000" stroke-opacity="0.30" stroke-width="1.2"/>

  <rect x="218" y="170" width="140" height="52" rx="2" fill="#3E2720"/>
  <line x1="220" y1="172" x2="286" y2="172" stroke="#FFFFFF" stroke-opacity="0.08" stroke-width="1.2"/>
  <line x1="220" y1="221" x2="286" y2="221" stroke="#000000" stroke-opacity="0.30" stroke-width="1.2"/>
</svg>
